<svg width="34" height="34" viewBox="0 0 34 34" fill="none" xmlns="http://www.w3.org/2000/svg">
<path d="M31.1622 23.9665V28.2159C31.1638 28.6104 31.083 29.0009 30.925 29.3623C30.7669 29.7238 30.5352 30.0482 30.2445 30.3149C29.9538 30.5816 29.6106 30.7846 29.2369 30.911C28.8632 31.0374 28.4672 31.0843 28.0743 31.0488C23.7156 30.5752 19.5288 29.0858 15.8503 26.7003C12.4279 24.5255 9.52624 21.6239 7.35149 18.2015C4.95764 14.5063 3.4679 10.2991 3.00295 5.92079C2.96756 5.52909 3.01411 5.13431 3.13964 4.76159C3.26518 4.38887 3.46694 4.04637 3.7321 3.7559C3.99725 3.46543 4.31999 3.23335 4.67975 3.07444C5.03951 2.91553 5.42842 2.83327 5.82171 2.8329H10.0711C10.7585 2.82614 11.4249 3.06956 11.9462 3.51781C12.4674 3.96605 12.8078 4.58853 12.904 5.26922C13.0834 6.62911 13.416 7.96436 13.8955 9.24948C14.0861 9.75646 14.1274 10.3075 14.0144 10.8372C13.9014 11.3669 13.639 11.8531 13.2581 12.2382L11.4592 14.0371C13.4756 17.5833 16.4118 20.5195 19.958 22.5359L21.7569 20.737C22.142 20.3562 22.6283 20.0937 23.158 19.9807C23.6877 19.8678 24.2387 19.909 24.7457 20.0996C26.0308 20.5791 27.366 20.9117 28.7259 21.0911C29.414 21.1882 30.0424 21.5347 30.4916 22.0649C30.9408 22.5951 31.1795 23.2719 31.1622 23.9665Z" stroke="url(#paint0_linear_511_3607)" stroke-width="2.83293" stroke-linecap="round" stroke-linejoin="round"/>
<defs>
<linearGradient id="paint0_linear_511_3607" x1="2.99146" y1="2.83276" x2="31.219" y2="31.0044" gradientUnits="userSpaceOnUse">
<stop stop-color="#00A63E"/>
<stop offset="1" stop-color="#007D2E"/>
</linearGradient>
</defs>
</svg>
